<?xml version="1.0" encoding="iso-8859-1"?>
<!-- Uploaded to: SVG Repo, www.svgrepo.com, Generator: SVG Repo Mixer Tools -->
<svg version="1.1" id="Layer_1" xmlns="http://www.w3.org/2000/svg" xmlns:xlink="http://www.w3.org/1999/xlink" 
	 viewBox="0 0 512 512" xml:space="preserve">
<path style="fill:#999999;" d="M256,0C114.616,0,0,114.616,0,256s114.616,256,256,256s256-114.616,256-256S397.384,0,256,0z"/>
<polygon points="446.512,335.592 65.488,335.592 65.488,348.2 84.536,365.784 427.464,365.784 446.512,348.2 "/>
<path style="fill:#FFFFFF;" d="M101.208,335.592V129.008c0-4.944,4.016-8.984,8.928-8.984h291.72c4.912,0,8.936,4.04,8.936,8.984
	V335.6"/>
<path d="M416.744,335.592H404.84V129.016c0-1.64-1.36-3.032-2.976-3.032H110.136c-1.616,0-2.976,1.392-2.976,3.032V335.6H95.256
	V129.016c0-8.248,6.672-14.944,14.88-14.944h291.72c8.208,0,14.88,6.696,14.88,14.944v206.576H416.744z"/>
<polygon style="fill:#999999;" points="290.992,348.12 221.008,348.12 209.104,335.6 302.896,335.6 "/>
<rect x="309.746" y="241.022" transform="matrix(-0.7071 0.7071 -0.7071 -0.7071 734.1769 226.618)" width="20.816" height="48.68"/>
<polygon points="288.728,279.544 333.616,234.656 279.272,225.208 "/>
<path style="fill:#F00000;" d="M342.384,206.6H169.616c-15.744,0-28.616-12.88-28.616-28.616V130.76
	c0-15.744,12.88-28.616,28.616-28.616h172.76c15.744,0,28.616,12.88,28.616,28.616v47.224C371,193.728,358.12,206.6,342.384,206.6z"
	/>
<g>
	<path style="fill:#FFFFFF;" d="M193.224,123.52c3.176-0.64,9.632-1.12,15.68-1.12c7.408,0,11.944,0.712,15.848,3.024
		c3.744,1.992,6.448,5.656,6.448,10.512c0,4.776-2.784,9.24-8.84,11.464v0.16c6.128,1.672,10.672,6.296,10.672,13.224
		c0,4.856-2.232,8.672-5.576,11.384c-3.904,3.104-10.44,4.856-21.104,4.856c-5.968,0-10.432-0.4-13.136-0.8V123.52H193.224z
		 M205.248,144.056h3.976c6.368,0,9.792-2.632,9.792-6.608c0-4.064-3.104-6.208-8.6-6.208c-2.624,0-4.144,0.16-5.176,0.32v12.496
		H205.248z M205.248,167.864c1.192,0.16,2.624,0.16,4.696,0.16c5.496,0,10.352-2.072,10.352-7.728c0-5.408-4.856-7.56-10.912-7.56
		h-4.136V167.864z"/>
	<path style="fill:#FFFFFF;" d="M277.592,163.96c0,5.096,0.16,9.24,0.32,12.504H267.4l-0.552-5.496h-0.24
		c-1.52,2.384-5.176,6.368-12.184,6.368c-7.88,0-13.696-4.936-13.696-16.96v-22.848h12.184v20.944c0,5.648,1.832,9.072,6.048,9.072
		c3.344,0,5.256-2.312,6.048-4.216c0.32-0.72,0.4-1.672,0.4-2.632v-23.168h12.176v26.432H277.592z"/>
	<path style="fill:#FFFFFF;" d="M296.352,137.528l5.808,19.112c0.64,2.312,1.432,5.176,1.92,7.24h0.24
		c0.552-2.072,1.192-5.016,1.744-7.24l4.776-19.112h12.976l-9.072,25.64c-5.576,15.448-9.32,21.656-13.704,25.56
		c-4.216,3.664-8.672,4.936-11.704,5.336l-2.544-10.272c1.512-0.24,3.424-0.952,5.256-2.072c1.832-0.952,3.816-2.864,5.008-4.856
		c0.4-0.552,0.64-1.192,0.64-1.752c0-0.4-0.08-1.032-0.552-1.992l-14.256-35.592L296.352,137.528L296.352,137.528z"/>
</g>
</svg>